<?xml version="1.0" encoding="UTF-8"?>
<svg width="144px" height="129px" viewBox="0 0 144 129" version="1.1" xmlns="http://www.w3.org/2000/svg"
  xmlns:xlink="http://www.w3.org/1999/xlink">
  <title>空白页/无数据</title>
  <defs>
    <polygon id="path-1" points="0 2.001 143.9988 2.001 143.9988 126 0 126"></polygon>
  </defs>
  <g id="页面-1" stroke="none" stroke-width="1" fill="none" fill-rule="evenodd">
    <g id="空白页" transform="translate(-1098.000000, -240.000000)">
      <g id="空白页/无数据" transform="translate(1098.000000, 240.000000)">
        <g id="编组" transform="translate(0.000000, 0.999900)">
          <mask id="mask-2" fill="white">
            <use xlink:href="#path-1"></use>
          </mask>
          <g id="Clip-2"></g>
          <path
            d="M8.6148,55.539 C8.6148,57.18 6.1548,57.18 6.1548,55.539 L6.1548,50.922 C6.1548,50.244 6.7038,49.692 7.3848,49.692 L11.9988,49.692 C13.6398,49.692 13.6398,52.155 11.9988,52.155 L8.6148,52.155 L8.6148,55.539 Z M120.1548,7.386 L124.3068,7.386 C125.9478,7.386 125.9478,9.846 124.3068,9.846 L120.1548,9.846 L120.1548,14.001 C120.1548,15.642 117.6918,15.642 117.6918,14.001 L117.6918,9.846 L113.5398,9.846 C111.8988,9.846 111.8988,7.386 113.5398,7.386 L117.6918,7.386 L117.6918,3.231 C117.6918,1.59 120.1548,1.59 120.1548,3.231 L120.1548,7.386 Z M6.1548,46.308 C6.1548,44.667 8.6148,44.667 8.6148,46.308 L8.6148,50.922 C8.6148,51.603 8.0628,52.155 7.3848,52.155 L2.7678,52.155 C1.1268,52.155 1.1268,49.692 2.7678,49.692 L6.1548,49.692 L6.1548,46.308 Z M125.5398,92.463 C125.5398,94.101 123.0768,94.101 123.0768,92.463 L123.0768,87.846 C123.0768,87.165 123.6288,86.616 124.3068,86.616 L128.9238,86.616 C130.5648,86.616 130.5648,89.076 128.9238,89.076 L125.5398,89.076 L125.5398,92.463 Z M123.0768,83.229 C123.0768,81.591 125.5398,81.591 125.5398,83.229 L125.5398,87.846 C125.5398,88.527 124.9878,89.076 124.3068,89.076 L119.6928,89.076 C118.0518,89.076 118.0518,86.616 119.6928,86.616 L123.0768,86.616 L123.0768,83.229 Z M54.3078,126 C53.6268,126 53.0778,125.448 53.0778,124.77 C53.0778,124.089 53.6268,123.54 54.3078,123.54 L101.2308,123.54 C101.9118,123.54 102.4608,124.089 102.4608,124.77 C102.4608,125.448 101.9118,126 101.2308,126 L54.3078,126 Z M36.6138,126 C35.9358,126 35.3838,125.448 35.3838,124.77 C35.3838,124.089 35.9358,123.54 36.6138,123.54 L47.3838,123.54 C48.0648,123.54 48.6138,124.089 48.6138,124.77 C48.6138,125.448 48.0648,126 47.3838,126 L36.6138,126 Z M128.9238,114.462 C128.2428,114.462 127.6908,113.91 127.6908,113.229 C127.6908,112.551 128.2428,111.999 128.9238,111.999 L142.7688,111.999 C143.4498,111.999 143.9988,112.551 143.9988,113.229 C143.9988,113.91 143.4498,114.462 142.7688,114.462 L128.9238,114.462 Z M115.0758,114.462 C114.3978,114.462 113.8458,113.91 113.8458,113.229 C113.8458,112.551 114.3978,111.999 115.0758,111.999 L118.9248,111.999 C119.6028,111.999 120.1548,112.551 120.1548,113.229 C120.1548,113.91 119.6028,114.462 118.9248,114.462 L115.0758,114.462 Z M1.2318,114.462 C0.5508,114.462 -0.0012,113.91 -0.0012,113.229 C-0.0012,112.551 0.5508,111.999 1.2318,111.999 L108.9228,111.999 C109.6038,111.999 110.1528,112.551 110.1528,113.229 C110.1528,113.91 109.6038,114.462 108.9228,114.462 L1.2318,114.462 Z"
            id="Fill-1" fill="#C3CBD6" mask="url(#mask-2)"></path>
        </g>
        <path
          d="M33.0879,20.889 C32.3619,21.615 31.2759,20.526 31.9989,19.803 L33.6309,18.171 C33.9309,17.871 34.4199,17.871 34.7199,18.171 L36.3519,19.803 C37.0779,20.526 35.9889,21.615 35.2629,20.889 L34.1769,19.803 L33.0879,20.889 Z M35.2629,16.539 C35.9889,15.813 37.0779,16.899 36.3519,17.628 L34.7199,19.26 C34.4199,19.56 33.9309,19.56 33.6309,19.26 L31.9989,17.628 C31.2759,16.899 32.3619,15.813 33.0879,16.539 L34.1769,17.628 L35.2629,16.539 Z M19.5069,101.418 C18.7809,102.141 17.6919,101.055 18.4179,100.329 L20.0499,98.7 C20.3499,98.397 20.8389,98.397 21.1389,98.7 L22.7709,100.329 C23.4939,101.055 22.4049,102.141 21.6819,101.418 L20.5929,100.329 L19.5069,101.418 Z M21.6819,97.068 C22.4049,96.342 23.4939,97.428 22.7709,98.154 L21.1389,99.786 C20.8389,100.086 20.3499,100.086 20.0499,99.786 L18.4179,98.154 C17.6919,97.428 18.7809,96.342 19.5069,97.068 L20.5929,98.154 L21.6819,97.068 Z"
          id="Fill-3" fill="#C3CBD6"></path>
        <path
          d="M98.1534,59.6151 L98.1534,98.0781 C98.1534,99.7761 96.7764,101.1531 95.0784,101.1531 L48.9234,101.1531 C47.2224,101.1531 45.8454,99.7761 45.8454,98.0781 L45.8454,42.6921 C45.8454,40.9911 47.2224,39.6141 48.9234,39.6141 L79.6914,39.6141"
          id="Fill-5" fill="#FFFFFF"></path>
        <path
          d="M50.7687,96.2319 L93.2307,96.2319 L93.2307,61.5399 L77.5377,44.5389 L50.7687,44.5389 L50.7687,96.2319 Z M95.0787,101.1549 L48.9237,101.1549 C47.2257,101.1549 45.8457,99.7749 45.8457,98.0769 L45.8457,42.6909 C45.8457,40.9959 47.2257,39.6159 48.9237,39.6159 L79.6947,39.6159 L98.1537,59.6139 L98.1537,98.0769 C98.1537,99.7749 96.7737,101.1549 95.0787,101.1549 L95.0787,101.1549 Z"
          id="Fill-7" fill="#C3CBD6"></path>
        <path
          d="M82.1529,45.9114 L82.1529,56.5374 C82.1529,56.8764 82.4289,57.1554 82.7709,57.1554 L92.5299,57.1554 L82.1529,45.9114 Z M98.1519,59.6154 L82.7709,59.6154 C81.0729,59.6154 79.6929,58.2354 79.6929,56.5374 L79.6929,39.6144 L98.1519,59.6154 Z"
          id="Fill-9" fill="#C3CBD6"></path>
        <path
          d="M71.436,72.1629 C70.59,72.1629 69.903,71.4789 69.897,70.6329 L69.855,62.9289 L69.855,62.9169 C69.855,62.0739 70.536,61.3869 71.382,61.3809 L71.391,61.3809 C72.237,61.3809 72.927,62.0649 72.93,62.9109 L72.975,70.6149 L72.975,70.6269 C72.975,71.4729 72.291,72.1599 71.445,72.1629 L71.436,72.1629 Z M80.466,74.9259 C80.019,74.9259 79.578,74.7339 79.272,74.3619 C79.038,74.0769 78.924,73.7319 78.9269423,73.3899 C78.9269423,72.9429 79.119,72.5019 79.491,72.1989 L85.5,67.2759 C86.157,66.7389 87.126,66.8319 87.666,67.4919 C87.9,67.7799 88.014,68.1249 88.014,68.4669 C88.014,68.9139 87.822,69.3519 87.45,69.6579 L81.438,74.5809 C81.153,74.8119 80.808,74.9259 80.466,74.9259 L80.466,74.9259 Z M62.331,75.1959 C61.998,75.1959 61.665,75.0909 61.383,74.8719 L55.401,70.1979 C55.014,69.8919 54.81,69.4389 54.81,68.9829 C54.81,68.6529 54.918,68.3169 55.137,68.0379 C55.662,67.3659 56.625,67.2459 57.297,67.7709 L63.279,72.4449 C63.669,72.7509 63.87,73.2039 63.87,73.6599 C63.87,73.9899 63.765,74.3259 63.546,74.6049 C63.24,74.9949 62.787,75.1959 62.331,75.1959 L62.331,75.1959 Z"
          id="Fill-11" fill="#C3CAD7"></path>
      </g>
    </g>
  </g>
</svg>
